<svg xmlns="http://www.w3.org/2000/svg" version="1.1"
     width="1000" height="229" viewBox="0 0 1000 229">
    <g transform="matrix(1,0,0,1,-0.6056348047761162,0.5041870846229983)">
        <svg viewBox="0 0 396 91" data-background-color="#ffffff" preserveAspectRatio="xMidYMid meet" height="229"
             width="1000" xmlns="http://www.w3.org/2000/svg">
            <g id="tight-bounds" transform="matrix(1,0,0,1,0.24008861730862918,-0.2003258739507885)">
                <svg viewBox="0 0 395.52 91.40058318621902" height="91.40058318621902" width="395.52">
                    <g>
                        <svg viewBox="0 0 395.52 91.40058318621902" height="91.40058318621902" width="395.52">
                            <g>
                                <svg viewBox="0 0 395.52 91.40058318621902" height="91.40058318621902" width="395.52">
                                    <g>
                                        <svg viewBox="0 0 395.52 91.40058318621902" height="91.40058318621902"
                                             width="395.52">
                                            <g>
                                                <svg viewBox="0 0 395.52 91.40058318621902" height="91.40058318621902"
                                                     width="395.52">
                                                    <path d="M394.594 19.604C392.735 10.116 387.435 7.479 387.435 7.479 371.165-2.293 350.86-0.187 332.619 1.217 300.414 1.274 268.339 3.361 236.208 4.481 168.767 4.652 100.749 1.843 33.643 8.769 27.339 10.894-6.54 9.187 1.121 20.818 3.129 25.657 10.456 31.026 10.232 35.467 11.236 36.244 12.631 34.461 13.226 35.58 15.309 38.597 18.711 37.174 21.501 38.958 17.614 43.721 20.403 47.686 23.062 51.842 18.377 52.923 12.371 52.411 9.675 55.997 9.396 58.597 7.89 58.103 6.235 57.989 5.026 57.914 2.59 58.198 2.999 59.014 4.394 61.803-1.594 63.416 2.162 66.149-0.422 69.109 3.948 71.67 3.353 74.877 3.278 75.522 3.687 76.072 4.338 76.224 7.22 77.04 3.018 78.634 3.464 80.361 33.029 92.163 65.104 84.004 95.394 89.431 103.259 85.636 97.346 90.778 100.489 89.981 102.943 89.051 104.728 92.903 107.499 90.721 107.927 90.095 107.276 88.615 108.8 88.899 109.6 89.051 110.307 89.013 110.418 88.14 110.586 86.831 109.117 87.647 108.726 86.964 112.947 83.51 111.906 91.726 115.866 91.385 115.68 90.379 114.528 88.937 116.889 89.127 119.232 87.685 119.306 86.489 121.389 89.734 121.463 90.436 121.835 90.93 122.43 91.271 128.938 87.742 135.409 92.523 142.233 90.93 146.417 89.184 150.433 91.878 154.672 91.214 156.16 90.683 157.666 89.734 159.098 91.328 176.632 91.67 195.319 90.246 211.943 91.385 256.364 89.26 303.836 92.258 350.674 89.45 361.719 88.368 373.192 86.831 383.958 85.598 383.958 85.598 392.679 82.22 392.679 67.04S394.538 53.758 394.817 41.671C395.096 29.584 396.398 29.091 394.538 19.604Z"
                                                          opacity="1" fill="#f97316"
                                                          data-fill-palette-color="tertiary"></path>
                                                    <g transform="matrix(1,0,0,1,55.76832,26.230666666666668)">
                                                        <svg width="283.98335999999995" viewBox="3.3 -35.6 265.08 36.35"
                                                             height="38.939249852885695" data-palette-color="#ffffff">
                                                            <path d="M30.25-4.75Q30.65-3.8 30.65-2.95L30.65-2.95Q30.65-1.2 29.35-0.25 28.05 0.7 26.7 0.7L26.7 0.7Q24.75 0.7 23.53-0.13 22.3-0.95 21.53-2.38 20.75-3.8 19.65-6.55L19.65-6.55 18.1-10.65Q17.45-12.3 16.9-13.23 16.35-14.15 15.35-14.78 14.35-15.4 12.7-15.4L12.7-15.4 10.8-15.45 10.8-6.7Q10.8-2.95 11.75-0.75L11.75-0.75Q11.2-0.2 10.23 0.25 9.25 0.7 8 0.7L8 0.7Q6.35 0.7 5.3-0.2 4.25-1.1 4.25-2.65L4.25-2.65 4.25-27.75Q4.25-31.55 3.3-34.05L3.3-34.05Q6.4-35.55 12.55-35.55L12.55-35.55Q19.85-35.55 23.53-33.4 27.2-31.25 27.2-26.45L27.2-26.45Q27.2-22.8 25.1-20.28 23-17.75 19.3-16.8L19.3-16.8Q21-16.3 22.13-15.25 23.25-14.2 24.15-12.55L24.15-12.55 26.25-7.7Q27-5.95 27.65-5.15 28.3-4.35 29.05-4.3L29.05-4.3Q29.75-4.3 30.25-4.75L30.25-4.75ZM10.8-17.8Q12.2-17.7 13-17.75L13-17.75Q16.4-17.85 18.2-20.15 20-22.45 20-26L20-26Q20-29.4 18.35-31.35 16.7-33.3 13.05-33.3L13.05-33.3Q11.4-33.3 10.8-33.2L10.8-33.2 10.8-17.8ZM39.3 0.7Q37.65 0.7 36.6-0.2 35.55-1.1 35.55-2.65L35.55-2.65 35.55-27.75Q35.55-31.55 34.6-34.05L34.6-34.05Q35.15-34.6 36.12-35.05 37.1-35.5 38.35-35.5L38.35-35.5Q40-35.5 41.05-34.6 42.1-33.7 42.1-32.15L42.1-32.15 42.1-7.05Q42.1-3.1 43.05-0.75L43.05-0.75Q42.5-0.2 41.52 0.25 40.55 0.7 39.3 0.7L39.3 0.7ZM54.14 0Q52.39 0 51.37-0.9 50.34-1.8 50.34-3.3L50.34-3.3 50.3-27.75 50.3-29.55Q50.3-33.25 49.64-34.95L49.64-34.95Q52.8-35.35 60.74-35.35L60.74-35.35Q68.34-35.35 72.42-30.93 76.5-26.5 76.5-17.9L76.5-17.9Q76.5 0 61.09 0L61.09 0 54.14 0ZM56.89-2.3L60.74-2.3Q63.75-2.3 65.62-3.8 67.5-5.3 68.39-8.63 69.3-11.95 69.3-17.45L69.3-17.45Q69.3-25.55 67.22-29.3 65.14-33.05 60.74-33.05L60.74-33.05 56.89-33.05 56.89-2.3ZM103.19-5.85Q103.79-5.5 104.12-4.6 104.44-3.7 104.44-2.7L104.44-2.7Q104.44-1.55 104.04-0.78 103.64 0 102.84 0L102.84 0 86.94 0Q85.29 0 84.24-0.9 83.19-1.8 83.19-3.35L83.19-3.35 83.19-26.9Q83.19-30.7 82.24-33.2L82.24-33.2Q83.44-34.2 84.67-34.52 85.89-34.85 88.19-34.85L88.19-34.85 102.69-34.85Q103.24-34.85 103.49-34.35 103.74-33.85 103.74-33.05L103.74-33.05Q103.74-31.9 103.24-30.7 102.74-29.5 101.99-29.15L101.99-29.15Q96.09-31.55 89.69-31.7L89.69-31.7 89.69-19.85 100.54-19.85Q100.79-18.95 100.79-18.15L100.79-18.15Q100.79-17.2 100.54-16.3L100.54-16.3 89.74-16.3 89.74-3.15Q93.04-3.25 97.04-4.08 101.04-4.9 103.19-5.85L103.19-5.85ZM130.89 0.75Q125.04 0.75 122.04-1.23 119.04-3.2 119.04-6.35L119.04-6.35Q119.04-7.95 119.99-8.97 120.94-10 123.09-10L123.09-10Q123.99-10 124.54-9.9L124.54-9.9Q124.39-9.25 124.39-8.55L124.39-8.55Q124.39-8.05 124.49-7.35L124.49-7.35Q124.84-4.95 126.69-3.3 128.54-1.65 131.84-1.65L131.84-1.65Q134.29-1.65 135.89-2.98 137.49-4.3 137.49-6.85L137.49-6.85Q137.49-9.25 135.91-10.88 134.34-12.5 130.49-14.65L130.49-14.65Q126.84-16.75 124.74-18.32 122.64-19.9 121.46-21.93 120.29-23.95 120.29-26.7L120.29-26.7Q120.29-31.2 123.61-33.38 126.94-35.55 132.09-35.55L132.09-35.55Q136.89-35.55 139.79-34.05 142.69-32.55 142.69-29.7L142.69-29.7Q142.69-28.35 141.91-27.53 141.14-26.7 139.34-26.65L139.34-26.65Q139.14-26.6 138.64-26.6L138.64-26.6Q138.19-26.6 137.49-26.7L137.49-26.7Q137.59-28.35 137.09-29.6L137.09-29.6Q136.69-31.25 135.24-32.27 133.79-33.3 131.34-33.3L131.34-33.3Q129.34-33.3 127.86-32.3 126.39-31.3 126.39-29L126.39-29Q126.39-27.4 127.09-26.15 127.79-24.9 129.44-23.65 131.09-22.4 134.14-20.7L134.14-20.7Q137.14-19.05 139.14-17.57 141.14-16.1 142.49-14 143.84-11.9 143.84-9.1L143.84-9.1Q143.84-6.35 142.41-4.13 140.99-1.9 138.06-0.58 135.14 0.75 130.89 0.75L130.89 0.75ZM176.19-7.05Q176.19-3.1 177.13-0.75L177.13-0.75Q176.59-0.2 175.61 0.25 174.63 0.7 173.38 0.7L173.38 0.7Q171.74 0.7 170.69-0.2 169.63-1.1 169.63-2.65L169.63-2.65 169.63-16.45 156.34-16.45 156.34-7.05Q156.34-3.1 157.28-0.75L157.28-0.75Q156.73-0.2 155.76 0.25 154.78 0.7 153.53 0.7L153.53 0.7Q151.88 0.7 150.84-0.2 149.78-1.1 149.78-2.65L149.78-2.65 149.78-27.75Q149.78-31.55 148.84-34.05L148.84-34.05Q149.38-34.6 150.36-35.05 151.34-35.5 152.59-35.5L152.59-35.5Q154.23-35.5 155.28-34.6 156.34-33.7 156.34-32.15L156.34-32.15 156.34-19.95 169.63-19.95 169.63-27.75Q169.63-31.55 168.69-34.05L168.69-34.05Q169.24-34.6 170.21-35.05 171.19-35.5 172.44-35.5L172.44-35.5Q174.03-35.5 175.11-34.6 176.19-33.7 176.19-32.15L176.19-32.15 176.19-7.05ZM209.78-3.9Q210.38-1.85 211.38-0.8L211.38-0.8Q210.08 0.7 207.53 0.7L207.53 0.7Q205.98 0.7 204.91 0.05 203.83-0.6 203.58-1.85L203.58-1.85 201.33-10.25 190.03-10.25 188.38-3.8Q188.03-2.5 188.03-1.6L188.03-1.6Q188.03-0.55 188.58 0L188.58 0Q187.63 0.35 186.86 0.53 186.08 0.7 184.98 0.7L184.98 0.7Q183.08 0.7 182.21 0.05 181.33-0.6 181.33-2.05L181.33-2.05Q181.33-3.25 181.98-5.45L181.98-5.45 191.83-34.7Q194.58-35.6 197.33-35.6L197.33-35.6Q200.33-35.6 200.88-33.45L200.88-33.45 209.78-3.9ZM190.93-13.8L200.38-13.8 195.58-31.7 190.93-13.8ZM241.83-4.75Q242.23-3.8 242.23-2.95L242.23-2.95Q242.23-1.2 240.93-0.25 239.63 0.7 238.28 0.7L238.28 0.7Q236.33 0.7 235.11-0.13 233.88-0.95 233.11-2.38 232.33-3.8 231.23-6.55L231.23-6.55 229.68-10.65Q229.03-12.3 228.48-13.23 227.93-14.15 226.93-14.78 225.93-15.4 224.28-15.4L224.28-15.4 222.38-15.45 222.38-6.7Q222.38-2.95 223.33-0.75L223.33-0.75Q222.78-0.2 221.81 0.25 220.83 0.7 219.58 0.7L219.58 0.7Q217.93 0.7 216.88-0.2 215.83-1.1 215.83-2.65L215.83-2.65 215.83-27.75Q215.83-31.55 214.88-34.05L214.88-34.05Q217.98-35.55 224.13-35.55L224.13-35.55Q231.43-35.55 235.11-33.4 238.78-31.25 238.78-26.45L238.78-26.45Q238.78-22.8 236.68-20.28 234.58-17.75 230.88-16.8L230.88-16.8Q232.58-16.3 233.71-15.25 234.83-14.2 235.73-12.55L235.73-12.55 237.83-7.7Q238.58-5.95 239.23-5.15 239.88-4.35 240.63-4.3L240.63-4.3Q241.33-4.3 241.83-4.75L241.83-4.75ZM222.38-17.8Q223.78-17.7 224.58-17.75L224.58-17.75Q227.98-17.85 229.78-20.15 231.58-22.45 231.58-26L231.58-26Q231.58-29.4 229.93-31.35 228.28-33.3 224.63-33.3L224.63-33.3Q222.98-33.3 222.38-33.2L222.38-33.2 222.38-17.8ZM267.13-5.85Q267.73-5.5 268.05-4.6 268.38-3.7 268.38-2.7L268.38-2.7Q268.38-1.55 267.98-0.78 267.58 0 266.78 0L266.78 0 250.88 0Q249.23 0 248.18-0.9 247.13-1.8 247.13-3.35L247.13-3.35 247.13-26.9Q247.13-30.7 246.18-33.2L246.18-33.2Q247.38-34.2 248.6-34.52 249.83-34.85 252.13-34.85L252.13-34.85 266.63-34.85Q267.18-34.85 267.43-34.35 267.68-33.85 267.68-33.05L267.68-33.05Q267.68-31.9 267.18-30.7 266.68-29.5 265.93-29.15L265.93-29.15Q260.03-31.55 253.63-31.7L253.63-31.7 253.63-19.85 264.48-19.85Q264.73-18.95 264.73-18.15L264.73-18.15Q264.73-17.2 264.48-16.3L264.48-16.3 253.68-16.3 253.68-3.15Q256.98-3.25 260.98-4.08 264.98-4.9 267.13-5.85L267.13-5.85Z"
                                                                  opacity="1" transform="matrix(1,0,0,1,0,0)"
                                                                  fill="#ffffff" class="undefined-text-0"
                                                                  data-fill-palette-color="quaternary"
                                                                  id="text-0"></path>
                                                        </svg>
                                                    </g>
                                                </svg>
                                            </g>
                                        </svg>
                                    </g>
                                </svg>
                            </g>
                            <g></g>
                        </svg>
                    </g>
                    <defs></defs>
                </svg>
                <rect width="395.52" height="91.40058318621902" fill="none" stroke="none" visibility="hidden"></rect>
            </g>
        </svg>
    </g>
</svg>
